# Blender v2.79 (sub 0) OBJ File: ''
# www.blender.org
mtllib Env_Obj_Clutter_ScrubBrush.mtl
o Env_Obj_Clutter_ScrubBrush
v -1.717998 0.082103 0.100000
v -1.717998 -0.017897 -0.100000
v -1.717998 -0.017897 0.100000
v -1.717998 0.082103 -0.100000
v -0.217998 0.082103 0.200000
v -0.217998 -0.017897 0.100000
v -0.217998 -0.017897 0.200000
v -0.217998 0.082103 0.100000
v -0.217998 0.082103 -0.100000
v -0.217998 -0.017897 -0.200000
v -0.217998 -0.017897 -0.100000
v -0.217998 0.082103 -0.200000
v -0.117998 0.082103 0.300000
v -0.117998 -0.017897 0.200000
v -0.117998 -0.017897 0.300000
v -0.117998 0.082103 0.200000
v -0.117998 0.082103 -0.200000
v -0.117998 -0.017897 -0.300000
v -0.117998 -0.017897 -0.200000
v -0.117998 0.082103 -0.300000
v -0.117998 0.282103 0.100000
v -0.117998 0.082103 -0.000000
v -0.117998 0.082103 0.100000
v -0.117998 0.282103 0.000000
v -0.117998 0.082103 -0.100000
v -0.117998 0.282103 -0.100000
v -0.017998 0.282103 0.200000
v -0.017998 0.082103 0.100000
v -0.017998 0.082103 0.200000
v -0.017998 0.282103 0.100000
v -0.017998 0.282103 -0.100000
v -0.017998 0.082103 -0.200000
v -0.017998 0.082103 -0.100000
v -0.017998 0.282103 -0.200000
v 0.282002 0.082103 0.200000
v 0.282002 0.082103 0.100000
v 0.282002 0.282103 0.200000
v 0.282002 0.282103 0.100000
v 0.282002 0.082103 -0.100000
v 0.282002 0.082103 -0.200000
v 0.282002 0.282103 -0.100000
v 0.282002 0.282103 -0.200000
v 0.382002 -0.017897 0.300000
v 0.382002 -0.017897 0.200000
v 0.382002 0.082103 0.300000
v 0.382002 0.082103 0.200000
v 0.382002 -0.017897 -0.200000
v 0.382002 -0.017897 -0.300000
v 0.382002 0.082103 -0.200000
v 0.382002 0.082103 -0.300000
v 0.382002 0.082103 0.100000
v 0.382002 0.082103 -0.000000
v 0.382002 0.282103 0.100000
v 0.382002 0.082103 -0.100000
v 0.382002 0.282103 0.000000
v 0.382002 0.282103 -0.100000
v 0.482002 -0.017897 0.200000
v 0.482002 -0.017897 -0.200000
v 0.482002 0.082103 0.200000
v 0.482002 0.082103 -0.200000
v 0.382002 -0.017897 0.300000
v -0.117998 0.082103 0.300000
v -0.117998 -0.017897 0.300000
v 0.382002 0.082103 0.300000
v -0.117998 -0.017897 0.200000
v -0.217998 0.082103 0.200000
v -0.217998 -0.017897 0.200000
v -0.117998 0.082103 0.200000
v 0.082002 0.082103 0.200000
v -0.017998 0.282103 0.200000
v -0.017998 0.082103 0.200000
v 0.082002 0.282103 0.200000
v 0.182002 0.082103 0.200000
v 0.182002 0.282103 0.200000
v 0.282002 0.082103 0.200000
v 0.282002 0.282103 0.200000
v 0.482002 -0.017897 0.200000
v 0.382002 0.082103 0.200000
v 0.382002 -0.017897 0.200000
v 0.482002 0.082103 0.200000
v -0.217998 -0.017897 0.100000
v -1.717998 0.082103 0.100000
v -1.717998 -0.017897 0.100000
v -0.217998 0.082103 0.100000
v -0.017998 0.082103 0.100000
v -0.117998 0.282103 0.100000
v -0.117998 0.082103 0.100000
v -0.017998 0.282103 0.100000
v 0.382002 0.082103 0.100000
v 0.282002 0.282103 0.100000
v 0.282002 0.082103 0.100000
v 0.382002 0.282103 0.100000
v -1.717998 -0.017897 -0.100000
v -1.717998 0.082103 -0.100000
v -0.217998 -0.017897 -0.100000
v -0.217998 0.082103 -0.100000
v -0.117998 0.082103 -0.100000
v -0.117998 0.282103 -0.100000
v -0.017998 0.082103 -0.100000
v -0.017998 0.282103 -0.100000
v 0.282002 0.082103 -0.100000
v 0.282002 0.282103 -0.100000
v 0.382002 0.082103 -0.100000
v 0.382002 0.282103 -0.100000
v -0.217998 -0.017897 -0.200000
v -0.217998 0.082103 -0.200000
v -0.117998 -0.017897 -0.200000
v -0.117998 0.082103 -0.200000
v -0.017998 0.082103 -0.200000
v -0.017998 0.282103 -0.200000
v 0.082002 0.082103 -0.200000
v 0.082002 0.282103 -0.200000
v 0.182002 0.082103 -0.200000
v 0.182002 0.282103 -0.200000
v 0.282002 0.082103 -0.200000
v 0.282002 0.282103 -0.200000
v 0.382002 -0.017897 -0.200000
v 0.382002 0.082103 -0.200000
v 0.482002 -0.017897 -0.200000
v 0.482002 0.082103 -0.200000
v -0.117998 -0.017897 -0.300000
v -0.117998 0.082103 -0.300000
v 0.382002 -0.017897 -0.300000
v 0.382002 0.082103 -0.300000
v -0.117998 -0.017897 0.200000
v 0.382002 -0.017897 0.300000
v -0.117998 -0.017897 0.300000
v 0.382002 -0.017897 0.200000
v -0.217998 -0.017897 0.100000
v -0.217998 -0.017897 0.200000
v 0.482002 -0.017897 0.200000
v -1.717998 -0.017897 -0.100000
v -1.717998 -0.017897 0.100000
v -0.217998 -0.017897 -0.100000
v -0.217998 -0.017897 -0.200000
v -0.117998 -0.017897 -0.200000
v 0.382002 -0.017897 -0.200000
v 0.482002 -0.017897 -0.200000
v -0.117998 -0.017897 -0.300000
v 0.382002 -0.017897 -0.300000
v -0.117998 0.082103 0.300000
v 0.382002 0.082103 0.300000
v -0.117998 0.082103 0.200000
v -0.017998 0.082103 0.200000
v 0.082002 0.082103 0.200000
v 0.182002 0.082103 0.200000
v 0.282002 0.082103 0.200000
v 0.382002 0.082103 0.200000
v -0.217998 0.082103 0.200000
v -0.217998 0.082103 0.100000
v -0.117998 0.082103 0.100000
v -0.017998 0.082103 0.100000
v 0.282002 0.082103 0.100000
v 0.482002 0.082103 0.200000
v 0.382002 0.082103 0.100000
v -0.117998 0.082103 -0.000000
v -1.717998 0.082103 0.100000
v 0.382002 0.082103 -0.000000
v -1.717998 0.082103 -0.100000
v -0.217998 0.082103 -0.100000
v -0.117998 0.082103 -0.100000
v 0.382002 0.082103 -0.100000
v -0.017998 0.082103 -0.100000
v -0.217998 0.082103 -0.200000
v -0.117998 0.082103 -0.200000
v -0.017998 0.082103 -0.200000
v 0.282002 0.082103 -0.100000
v 0.282002 0.082103 -0.200000
v 0.382002 0.082103 -0.200000
v 0.482002 0.082103 -0.200000
v 0.082002 0.082103 -0.200000
v 0.182002 0.082103 -0.200000
v -0.117998 0.082103 -0.300000
v 0.382002 0.082103 -0.300000
v -0.017998 0.282103 0.200000
v 0.082002 0.282103 0.200000
v -0.017998 0.282103 0.100000
v 0.182002 0.282103 0.200000
v 0.082002 0.282103 0.100000
v 0.282002 0.282103 0.200000
v 0.182002 0.282103 0.100000
v 0.282002 0.282103 0.100000
v -0.117998 0.282103 0.100000
v -0.117998 0.282103 0.000000
v -0.017998 0.282103 0.000000
v 0.082002 0.282103 0.000000
v 0.182002 0.282103 0.000000
v 0.382002 0.282103 0.100000
v 0.282002 0.282103 0.000000
v 0.382002 0.282103 0.000000
v -0.117998 0.282103 -0.100000
v -0.017998 0.282103 -0.100000
v 0.082002 0.282103 -0.100000
v 0.182002 0.282103 -0.100000
v 0.282002 0.282103 -0.100000
v 0.382002 0.282103 -0.100000
v -0.017998 0.282103 -0.200000
v 0.082002 0.282103 -0.200000
v 0.182002 0.282103 -0.200000
v 0.282002 0.282103 -0.200000
vt 0.919922 0.500000
vt 0.919922 0.500000
vt 0.919922 0.500000
vt 0.919922 0.500000
vt 0.919922 0.500000
vt 0.919922 0.500000
vt 0.919922 0.500000
vt 0.919922 0.500000
vt 0.919922 0.500000
vt 0.919922 0.500000
vt 0.919922 0.500000
vt 0.919922 0.500000
vt 0.919922 0.500000
vt 0.919922 0.500000
vt 0.919922 0.500000
vt 0.919922 0.500000
vt 0.919922 0.500000
vt 0.919922 0.500000
vt 0.919922 0.500000
vt 0.919922 0.500000
vt 0.927734 0.500000
vt 0.927734 0.500000
vt 0.927734 0.500000
vt 0.923828 0.500000
vt 0.923828 0.500000
vt 0.923828 0.500000
vt 0.927734 0.500000
vt 0.923828 0.500000
vt 0.927734 0.500000
vt 0.927734 0.500000
vt 0.927734 0.500000
vt 0.927734 0.500000
vt 0.923828 0.500000
vt 0.923828 0.500000
vt 0.923828 0.500000
vt 0.923828 0.500000
vt 0.927734 0.500000
vt 0.927734 0.500000
vt 0.927734 0.500000
vt 0.927734 0.500000
vt 0.923828 0.500000
vt 0.923828 0.500000
vt 0.923828 0.500000
vt 0.923828 0.500000
vt 0.919922 0.500000
vt 0.919922 0.500000
vt 0.919922 0.500000
vt 0.919922 0.500000
vt 0.919922 0.500000
vt 0.919922 0.500000
vt 0.919922 0.500000
vt 0.919922 0.500000
vt 0.927734 0.500000
vt 0.927734 0.500000
vt 0.927734 0.500000
vt 0.923828 0.500000
vt 0.923828 0.500000
vt 0.923828 0.500000
vt 0.927734 0.500000
vt 0.923828 0.500000
vt 0.919922 0.500000
vt 0.919922 0.500000
vt 0.919922 0.500000
vt 0.919922 0.500000
vt 0.919922 0.500000
vt 0.919922 0.500000
vt 0.919922 0.500000
vt 0.919922 0.500000
vt 0.919922 0.500000
vt 0.919922 0.500000
vt 0.919922 0.500000
vt 0.919922 0.500000
vt 0.927734 0.500000
vt 0.927734 0.500000
vt 0.927734 0.500000
vt 0.927734 0.500000
vt 0.923828 0.500000
vt 0.923828 0.500000
vt 0.923828 0.500000
vt 0.923828 0.500000
vt 0.927734 0.500000
vt 0.927734 0.500000
vt 0.927734 0.500000
vt 0.927734 0.500000
vt 0.919922 0.500000
vt 0.919922 0.500000
vt 0.919922 0.500000
vt 0.919922 0.500000
vt 0.919922 0.500000
vt 0.919922 0.500000
vt 0.919922 0.500000
vt 0.919922 0.500000
vt 0.927734 0.500000
vt 0.927734 0.500000
vt 0.927734 0.500000
vt 0.927734 0.500000
vt 0.927734 0.500000
vt 0.927734 0.500000
vt 0.927734 0.500000
vt 0.927734 0.500000
vt 0.919922 0.500000
vt 0.919922 0.500000
vt 0.919922 0.500000
vt 0.919922 0.500000
vt 0.923828 0.500000
vt 0.923828 0.500000
vt 0.923828 0.500000
vt 0.923828 0.500000
vt 0.923828 0.500000
vt 0.923828 0.500000
vt 0.923828 0.500000
vt 0.923828 0.500000
vt 0.919922 0.500000
vt 0.919922 0.500000
vt 0.919922 0.500000
vt 0.919922 0.500000
vt 0.923828 0.500000
vt 0.923828 0.500000
vt 0.923828 0.500000
vt 0.923828 0.500000
vt 0.927734 0.500000
vt 0.927734 0.500000
vt 0.927734 0.500000
vt 0.927734 0.500000
vt 0.923828 0.500000
vt 0.923828 0.500000
vt 0.923828 0.500000
vt 0.923828 0.500000
vt 0.919922 0.500000
vt 0.919922 0.500000
vt 0.919922 0.500000
vt 0.919922 0.500000
vt 0.919922 0.500000
vt 0.919922 0.500000
vt 0.919922 0.500000
vt 0.919922 0.500000
vt 0.919922 0.500000
vt 0.919922 0.500000
vt 0.919922 0.500000
vt 0.919922 0.500000
vt 0.919922 0.500000
vt 0.919922 0.500000
vt 0.919922 0.500000
vt 0.919922 0.500000
vt 0.919922 0.500000
vt 0.919922 0.500000
vt 0.919922 0.500000
vt 0.919922 0.500000
vt 0.919922 0.500000
vt 0.919922 0.500000
vt 0.919922 0.500000
vt 0.919922 0.500000
vt 0.919922 0.500000
vt 0.919922 0.500000
vt 0.919922 0.500000
vt 0.919922 0.500000
vt 0.919922 0.500000
vt 0.919922 0.500000
vt 0.919922 0.500000
vt 0.919922 0.500000
vt 0.919922 0.500000
vt 0.919922 0.500000
vt 0.919922 0.500000
vt 0.919922 0.500000
vt 0.919922 0.500000
vt 0.919922 0.500000
vt 0.919922 0.500000
vt 0.919922 0.500000
vt 0.919922 0.500000
vt 0.919922 0.500000
vt 0.919922 0.500000
vt 0.919922 0.500000
vt 0.919922 0.500000
vt 0.919922 0.500000
vt 0.919922 0.500000
vt 0.919922 0.500000
vt 0.919922 0.500000
vt 0.919922 0.500000
vt 0.919922 0.500000
vt 0.919922 0.500000
vt 0.919922 0.500000
vt 0.919922 0.500000
vt 0.919922 0.500000
vt 0.919922 0.500000
vt 0.919922 0.500000
vt 0.919922 0.500000
vt 0.927734 0.500000
vt 0.927734 0.500000
vt 0.927734 0.500000
vt 0.923828 0.500000
vt 0.923828 0.500000
vt 0.923828 0.500000
vt 0.927734 0.500000
vt 0.927734 0.500000
vt 0.927734 0.500000
vt 0.927734 0.500000
vt 0.923828 0.500000
vt 0.927734 0.500000
vt 0.927734 0.500000
vt 0.927734 0.500000
vt 0.923828 0.500000
vt 0.923828 0.500000
vt 0.927734 0.500000
vt 0.927734 0.500000
vt 0.923828 0.500000
vt 0.923828 0.500000
vt 0.923828 0.500000
vt 0.927734 0.500000
vt 0.927734 0.500000
vt 0.927734 0.500000
vt 0.923828 0.500000
vt 0.927734 0.500000
vt 0.923828 0.500000
vt 0.923828 0.500000
vt 0.927734 0.500000
vt 0.923828 0.500000
vt 0.923828 0.500000
vt 0.927734 0.500000
vt 0.927734 0.500000
vt 0.923828 0.500000
vt 0.923828 0.500000
vt 0.923828 0.500000
vt 0.927734 0.500000
vt 0.923828 0.500000
vt 0.923828 0.500000
vt 0.927734 0.500000
vt 0.923828 0.500000
vt 0.923828 0.500000
vt 0.927734 0.500000
vt 0.923828 0.500000
vn -1.0000 0.0000 0.0000
vn 1.0000 0.0000 0.0000
vn 0.0000 -0.0000 1.0000
vn 0.0000 0.0000 -1.0000
vn 0.0000 -1.0000 -0.0000
vn 0.0000 1.0000 0.0000
usemtl palette.007
s 1
f 1/1/1 2/2/1 3/3/1
f 4/4/1 2/2/1 1/1/1
f 5/5/1 6/6/1 7/7/1
f 8/8/1 6/6/1 5/5/1
f 9/9/1 10/10/1 11/11/1
f 12/12/1 10/10/1 9/9/1
f 13/13/1 14/14/1 15/15/1
f 16/16/1 14/14/1 13/13/1
f 17/17/1 18/18/1 19/19/1
f 20/20/1 18/18/1 17/17/1
f 21/21/1 22/22/1 23/23/1
f 24/24/1 25/25/1 22/26/1
f 24/27/1 22/22/1 21/21/1
f 26/28/1 25/25/1 24/24/1
f 27/29/1 28/30/1 29/31/1
f 30/32/1 28/30/1 27/29/1
f 31/33/1 32/34/1 33/35/1
f 34/36/1 32/34/1 31/33/1
f 35/37/2 36/38/2 37/39/2
f 37/39/2 36/38/2 38/40/2
f 39/41/2 40/42/2 41/43/2
f 41/43/2 40/42/2 42/44/2
f 43/45/2 44/46/2 45/47/2
f 45/47/2 44/46/2 46/48/2
f 47/49/2 48/50/2 49/51/2
f 49/51/2 48/50/2 50/52/2
f 51/53/2 52/54/2 53/55/2
f 52/56/2 54/57/2 55/58/2
f 53/55/2 52/54/2 55/59/2
f 55/58/2 54/57/2 56/60/2
f 57/61/2 58/62/2 59/63/2
f 59/63/2 58/62/2 60/64/2
f 61/65/3 62/66/3 63/67/3
f 64/68/3 62/66/3 61/65/3
f 65/69/3 66/70/3 67/71/3
f 68/72/3 66/70/3 65/69/3
f 69/73/3 70/74/3 71/75/3
f 72/76/3 70/74/3 69/73/3
f 73/77/3 72/78/3 69/79/3
f 74/80/3 72/78/3 73/77/3
f 75/81/3 74/82/3 73/83/3
f 76/84/3 74/82/3 75/81/3
f 77/85/3 78/86/3 79/87/3
f 80/88/3 78/86/3 77/85/3
f 81/89/3 82/90/3 83/91/3
f 84/92/3 82/90/3 81/89/3
f 85/93/3 86/94/3 87/95/3
f 88/96/3 86/94/3 85/93/3
f 89/97/3 90/98/3 91/99/3
f 92/100/3 90/98/3 89/97/3
f 93/101/4 94/102/4 95/103/4
f 95/103/4 94/102/4 96/104/4
f 97/105/4 98/106/4 99/107/4
f 99/107/4 98/106/4 100/108/4
f 101/109/4 102/110/4 103/111/4
f 103/111/4 102/110/4 104/112/4
f 105/113/4 106/114/4 107/115/4
f 107/115/4 106/114/4 108/116/4
f 109/117/4 110/118/4 111/119/4
f 111/119/4 110/118/4 112/120/4
f 111/121/4 112/122/4 113/123/4
f 113/123/4 112/122/4 114/124/4
f 113/125/4 114/126/4 115/127/4
f 115/127/4 114/126/4 116/128/4
f 117/129/4 118/130/4 119/131/4
f 119/131/4 118/130/4 120/132/4
f 121/133/4 122/134/4 123/135/4
f 123/135/4 122/134/4 124/136/4
f 125/137/5 126/138/5 127/139/5
f 128/140/5 126/138/5 125/137/5
f 129/141/5 125/137/5 130/142/5
f 129/141/5 131/143/5 128/140/5
f 129/141/5 128/140/5 125/137/5
f 132/144/5 129/141/5 133/145/5
f 134/146/5 131/143/5 129/141/5
f 134/146/5 129/141/5 132/144/5
f 135/147/5 131/143/5 134/146/5
f 136/148/5 131/143/5 135/147/5
f 137/149/5 131/143/5 136/148/5
f 138/150/5 131/143/5 137/149/5
f 139/151/5 137/149/5 136/148/5
f 140/152/5 137/149/5 139/151/5
f 141/153/6 142/154/6 143/155/6
f 143/155/6 142/154/6 144/156/6
f 144/156/6 142/154/6 145/157/6
f 145/157/6 142/154/6 146/158/6
f 146/158/6 142/154/6 147/159/6
f 147/159/6 142/154/6 148/160/6
f 149/161/6 143/155/6 150/162/6
f 143/155/6 144/156/6 150/162/6
f 150/162/6 144/156/6 151/163/6
f 151/163/6 144/156/6 152/164/6
f 147/159/6 148/160/6 153/165/6
f 148/160/6 154/166/6 153/165/6
f 153/165/6 154/166/6 155/167/6
f 150/162/6 151/163/6 156/168/6
f 157/169/6 150/162/6 156/168/6
f 155/167/6 154/166/6 158/170/6
f 157/169/6 156/168/6 159/171/6
f 159/171/6 156/168/6 160/172/6
f 160/172/6 156/168/6 161/173/6
f 158/170/6 154/166/6 162/174/6
f 161/173/6 163/175/6 164/176/6
f 160/172/6 161/173/6 164/176/6
f 164/176/6 163/175/6 165/177/6
f 165/177/6 163/175/6 166/178/6
f 167/179/6 162/174/6 168/180/6
f 162/174/6 154/166/6 169/181/6
f 168/180/6 162/174/6 169/181/6
f 169/181/6 154/166/6 170/182/6
f 171/183/6 172/184/6 173/185/6
f 172/184/6 168/180/6 173/185/6
f 168/180/6 169/181/6 173/185/6
f 166/178/6 171/183/6 173/185/6
f 165/177/6 166/178/6 173/185/6
f 173/185/6 169/181/6 174/186/6
f 175/187/6 176/188/6 177/189/6
f 176/190/6 178/191/6 179/192/6
f 177/189/6 176/188/6 179/193/6
f 178/194/6 180/195/6 181/196/6
f 179/192/6 178/191/6 181/197/6
f 181/196/6 180/195/6 182/198/6
f 183/199/6 177/189/6 184/200/6
f 177/201/6 179/192/6 185/202/6
f 184/200/6 177/189/6 185/203/6
f 179/193/6 181/196/6 186/204/6
f 185/202/6 179/192/6 186/205/6
f 181/197/6 182/206/6 187/207/6
f 186/204/6 181/196/6 187/208/6
f 182/198/6 188/209/6 189/210/6
f 187/207/6 182/206/6 189/211/6
f 189/210/6 188/209/6 190/212/6
f 184/213/6 185/202/6 191/214/6
f 185/203/6 186/204/6 192/215/6
f 191/214/6 185/202/6 192/216/6
f 186/205/6 187/207/6 193/217/6
f 192/215/6 186/204/6 193/218/6
f 187/208/6 189/210/6 194/219/6
f 193/217/6 187/207/6 194/220/6
f 189/211/6 190/221/6 195/222/6
f 194/219/6 189/210/6 195/223/6
f 195/222/6 190/221/6 196/224/6
f 192/216/6 193/217/6 197/225/6
f 193/218/6 194/219/6 198/226/6
f 197/225/6 193/217/6 198/227/6
f 194/220/6 195/222/6 199/228/6
f 198/226/6 194/219/6 199/229/6
f 199/228/6 195/222/6 200/230/6
