# Blender v2.79 (sub 0) OBJ File: ''
# www.blender.org
mtllib grass2.mtl
o grass2
v -0.270833 0.119524 -0.040152
v -0.270833 0.019525 -0.140152
v -0.270833 0.019525 -0.040152
v -0.270833 0.119524 -0.140152
v -0.170833 0.119524 0.259848
v -0.170833 0.019525 -0.040152
v -0.170833 0.019524 0.259848
v -0.170833 0.119524 0.159848
v -0.170833 0.119524 0.059848
v -0.170833 0.119524 -0.040152
v -0.170833 0.119524 -0.140152
v -0.170833 0.019525 -0.240152
v -0.170833 0.019525 -0.140152
v -0.170833 0.219525 -0.240152
v -0.170833 0.319524 0.159848
v -0.170833 0.319524 0.059848
v -0.170833 0.319524 -0.140152
v -0.170833 0.219525 -0.340152
v -0.170833 0.319525 -0.340152
v -0.170833 0.419525 0.259848
v -0.170833 0.319524 0.259848
v -0.170833 0.419525 0.159848
v -0.070833 0.119524 0.359848
v -0.070833 0.019524 0.259848
v -0.070833 0.019524 0.359848
v -0.070833 0.119524 0.259848
v -0.070833 0.219525 0.059848
v -0.070833 0.119524 -0.040152
v -0.070833 0.119524 0.059848
v -0.070833 0.219525 -0.040152
v 0.029167 0.119524 -0.240152
v 0.029167 0.019525 -0.340152
v 0.029167 0.019525 -0.240152
v 0.029167 0.119524 -0.340152
v 0.129167 0.119524 0.259848
v 0.129167 0.019524 0.159848
v 0.129167 0.019524 0.259848
v 0.129167 0.119524 0.159848
v 0.129167 0.119524 0.059848
v 0.129167 0.019525 -0.040152
v 0.129167 0.019525 0.059848
v 0.129167 0.119524 -0.040152
v 0.229167 0.219525 -0.140152
v 0.229167 0.019525 -0.240152
v 0.229167 0.019525 -0.140152
v 0.229167 0.219525 -0.240152
v -0.070833 0.019524 0.259848
v -0.070833 0.019525 0.059848
v -0.070833 0.119524 0.259848
v -0.070833 0.119524 0.159848
v -0.070833 0.219525 0.059848
v -0.070833 0.119524 -0.140152
v -0.070833 0.119524 -0.240152
v -0.070833 0.219525 -0.240152
v -0.070833 0.319524 0.159848
v -0.070833 0.319524 0.059848
v -0.070833 0.219525 -0.340152
v -0.070833 0.319524 -0.140152
v -0.070833 0.319525 -0.340152
v -0.070833 0.319524 0.259848
v -0.070833 0.419525 0.259848
v -0.070833 0.419525 0.159848
v 0.029167 0.019524 0.359848
v 0.029167 0.019524 0.259848
v 0.029167 0.119524 0.359848
v 0.029167 0.119524 0.259848
v 0.029167 0.019525 0.059848
v 0.029167 0.019525 -0.240152
v 0.029167 0.119524 -0.040152
v 0.029167 0.119524 -0.240152
v 0.029167 0.219525 0.059848
v 0.029167 0.219525 -0.040152
v 0.129167 0.019525 -0.240152
v 0.129167 0.019525 -0.340152
v 0.129167 0.119524 -0.240152
v 0.129167 0.119524 -0.340152
v 0.229167 0.019524 0.259848
v 0.229167 0.019524 0.159848
v 0.229167 0.119524 0.259848
v 0.229167 0.119524 0.159848
v 0.229167 0.019525 0.059848
v 0.229167 0.019525 -0.040152
v 0.229167 0.119524 0.059848
v 0.229167 0.119524 -0.040152
v 0.329167 0.019525 -0.140152
v 0.329167 0.019525 -0.240152
v 0.329167 0.219525 -0.140152
v 0.329167 0.219525 -0.240152
v 0.029167 0.019524 0.359848
v -0.070833 0.119524 0.359848
v -0.070833 0.019524 0.359848
v 0.029167 0.119524 0.359848
v -0.070833 0.019524 0.259848
v -0.170833 0.119524 0.259848
v -0.170833 0.019524 0.259848
v -0.070833 0.119524 0.259848
v -0.070833 0.319524 0.259848
v -0.170833 0.419525 0.259848
v -0.170833 0.319524 0.259848
v -0.070833 0.419525 0.259848
v 0.229167 0.019524 0.259848
v 0.129167 0.119524 0.259848
v 0.129167 0.019524 0.259848
v 0.229167 0.119524 0.259848
v -0.070833 0.119524 0.159848
v -0.170833 0.319524 0.159848
v -0.170833 0.119524 0.159848
v -0.070833 0.319524 0.159848
v 0.029167 0.019525 0.059848
v -0.070833 0.219525 0.059848
v -0.070833 0.019525 0.059848
v 0.029167 0.219525 0.059848
v 0.229167 0.019525 0.059848
v 0.129167 0.119524 0.059848
v 0.129167 0.019525 0.059848
v 0.229167 0.119524 0.059848
v -0.170833 0.019525 -0.040152
v -0.270833 0.119524 -0.040152
v -0.270833 0.019525 -0.040152
v -0.170833 0.119524 -0.040152
v -0.070833 0.119524 -0.140152
v -0.170833 0.319524 -0.140152
v -0.170833 0.119524 -0.140152
v -0.070833 0.319524 -0.140152
v 0.329167 0.019525 -0.140152
v 0.229167 0.219525 -0.140152
v 0.229167 0.019525 -0.140152
v 0.329167 0.219525 -0.140152
v 0.129167 0.019525 -0.240152
v 0.029167 0.119524 -0.240152
v 0.029167 0.019525 -0.240152
v 0.129167 0.119524 -0.240152
v -0.070833 0.019524 0.259848
v -0.070833 0.119524 0.259848
v 0.029167 0.019524 0.259848
v 0.029167 0.119524 0.259848
v -0.170833 0.319524 0.159848
v -0.170833 0.419525 0.159848
v -0.070833 0.319524 0.159848
v -0.070833 0.419525 0.159848
v 0.129167 0.019524 0.159848
v 0.129167 0.119524 0.159848
v 0.229167 0.019524 0.159848
v 0.229167 0.119524 0.159848
v -0.170833 0.119524 0.059848
v -0.170833 0.319524 0.059848
v -0.070833 0.119524 0.059848
v -0.070833 0.219525 0.059848
v -0.070833 0.319524 0.059848
v -0.070833 0.119524 -0.040152
v -0.070833 0.219525 -0.040152
v 0.029167 0.119524 -0.040152
v 0.029167 0.219525 -0.040152
v 0.129167 0.019525 -0.040152
v 0.129167 0.119524 -0.040152
v 0.229167 0.019525 -0.040152
v 0.229167 0.119524 -0.040152
v -0.270833 0.019525 -0.140152
v -0.270833 0.119524 -0.140152
v -0.170833 0.019525 -0.140152
v -0.170833 0.119524 -0.140152
v -0.170833 0.019525 -0.240152
v -0.170833 0.219525 -0.240152
v -0.070833 0.119524 -0.240152
v -0.070833 0.219525 -0.240152
v 0.029167 0.019525 -0.240152
v 0.029167 0.119524 -0.240152
v 0.229167 0.019525 -0.240152
v 0.229167 0.219525 -0.240152
v 0.329167 0.019525 -0.240152
v 0.329167 0.219525 -0.240152
v -0.170833 0.219525 -0.340152
v -0.170833 0.319525 -0.340152
v -0.070833 0.219525 -0.340152
v -0.070833 0.319525 -0.340152
v 0.029167 0.019525 -0.340152
v 0.029167 0.119524 -0.340152
v 0.129167 0.019525 -0.340152
v 0.129167 0.119524 -0.340152
v -0.070833 0.019524 0.259848
v 0.029167 0.019524 0.359848
v -0.070833 0.019524 0.359848
v 0.029167 0.019524 0.259848
v 0.129167 0.019524 0.159848
v 0.229167 0.019524 0.259848
v 0.129167 0.019524 0.259848
v 0.229167 0.019524 0.159848
v -0.070833 0.019525 0.059848
v -0.170833 0.019524 0.259848
v -0.170833 0.019525 -0.040152
v 0.029167 0.019525 0.059848
v 0.129167 0.019525 -0.040152
v 0.229167 0.019525 0.059848
v 0.129167 0.019525 0.059848
v 0.229167 0.019525 -0.040152
v -0.270833 0.019525 -0.140152
v -0.270833 0.019525 -0.040152
v -0.170833 0.019525 -0.140152
v -0.170833 0.019525 -0.240152
v 0.029167 0.019525 -0.240152
v 0.229167 0.019525 -0.240152
v 0.329167 0.019525 -0.140152
v 0.229167 0.019525 -0.140152
v 0.329167 0.019525 -0.240152
v 0.029167 0.019525 -0.340152
v 0.129167 0.019525 -0.240152
v 0.129167 0.019525 -0.340152
v -0.170833 0.219525 -0.340152
v -0.070833 0.219525 -0.240152
v -0.170833 0.219525 -0.240152
v -0.070833 0.219525 -0.340152
v -0.170833 0.319524 0.159848
v -0.070833 0.319524 0.259848
v -0.170833 0.319524 0.259848
v -0.070833 0.319524 0.159848
v -0.070833 0.119524 0.359848
v 0.029167 0.119524 0.359848
v -0.070833 0.119524 0.259848
v 0.029167 0.119524 0.259848
v -0.170833 0.119524 0.259848
v -0.170833 0.119524 0.159848
v -0.070833 0.119524 0.159848
v 0.129167 0.119524 0.259848
v 0.229167 0.119524 0.259848
v 0.129167 0.119524 0.159848
v 0.229167 0.119524 0.159848
v -0.170833 0.119524 0.059848
v -0.070833 0.119524 0.059848
v -0.170833 0.119524 -0.040152
v -0.070833 0.119524 -0.040152
v 0.129167 0.119524 0.059848
v 0.229167 0.119524 0.059848
v 0.129167 0.119524 -0.040152
v 0.229167 0.119524 -0.040152
v 0.029167 0.119524 -0.040152
v -0.270833 0.119524 -0.140152
v -0.270833 0.119524 -0.040152
v -0.170833 0.119524 -0.140152
v -0.070833 0.119524 -0.140152
v -0.070833 0.119524 -0.240152
v 0.029167 0.119524 -0.240152
v 0.129167 0.119524 -0.240152
v 0.029167 0.119524 -0.340152
v 0.129167 0.119524 -0.340152
v -0.070833 0.219525 0.059848
v 0.029167 0.219525 0.059848
v -0.070833 0.219525 -0.040152
v 0.029167 0.219525 -0.040152
v 0.229167 0.219525 -0.140152
v 0.329167 0.219525 -0.140152
v 0.229167 0.219525 -0.240152
v 0.329167 0.219525 -0.240152
v -0.170833 0.319524 0.159848
v -0.070833 0.319524 0.159848
v -0.170833 0.319524 0.059848
v -0.070833 0.319524 0.059848
v -0.170833 0.319524 -0.140152
v -0.070833 0.319524 -0.140152
v -0.170833 0.319525 -0.340152
v -0.070833 0.319525 -0.340152
v -0.170833 0.419525 0.259848
v -0.070833 0.419525 0.259848
v -0.170833 0.419525 0.159848
v -0.070833 0.419525 0.159848
vt 0.748047 0.500000
vt 0.748047 0.500000
vt 0.748047 0.500000
vt 0.748047 0.500000
vt 0.748047 0.500000
vt 0.748047 0.500000
vt 0.748047 0.500000
vt 0.748047 0.500000
vt 0.748047 0.500000
vt 0.748047 0.500000
vt 0.748047 0.500000
vt 0.748047 0.500000
vt 0.748047 0.500000
vt 0.748047 0.500000
vt 0.748047 0.500000
vt 0.748047 0.500000
vt 0.748047 0.500000
vt 0.748047 0.500000
vt 0.748047 0.500000
vt 0.748047 0.500000
vt 0.748047 0.500000
vt 0.748047 0.500000
vt 0.748047 0.500000
vt 0.748047 0.500000
vt 0.748047 0.500000
vt 0.748047 0.500000
vt 0.748047 0.500000
vt 0.748047 0.500000
vt 0.748047 0.500000
vt 0.748047 0.500000
vt 0.748047 0.500000
vt 0.748047 0.500000
vt 0.748047 0.500000
vt 0.748047 0.500000
vt 0.748047 0.500000
vt 0.748047 0.500000
vt 0.748047 0.500000
vt 0.748047 0.500000
vt 0.748047 0.500000
vt 0.748047 0.500000
vt 0.748047 0.500000
vt 0.748047 0.500000
vt 0.748047 0.500000
vt 0.748047 0.500000
vt 0.748047 0.500000
vt 0.748047 0.500000
vt 0.748047 0.500000
vt 0.748047 0.500000
vt 0.748047 0.500000
vt 0.748047 0.500000
vt 0.748047 0.500000
vt 0.748047 0.500000
vt 0.748047 0.500000
vt 0.748047 0.500000
vt 0.748047 0.500000
vt 0.748047 0.500000
vt 0.748047 0.500000
vt 0.748047 0.500000
vt 0.748047 0.500000
vt 0.748047 0.500000
vt 0.748047 0.500000
vt 0.748047 0.500000
vt 0.748047 0.500000
vt 0.748047 0.500000
vt 0.748047 0.500000
vt 0.748047 0.500000
vt 0.748047 0.500000
vt 0.748047 0.500000
vt 0.748047 0.500000
vt 0.748047 0.500000
vt 0.748047 0.500000
vt 0.748047 0.500000
vt 0.748047 0.500000
vt 0.748047 0.500000
vt 0.748047 0.500000
vt 0.748047 0.500000
vt 0.748047 0.500000
vt 0.748047 0.500000
vt 0.748047 0.500000
vt 0.748047 0.500000
vt 0.748047 0.500000
vt 0.748047 0.500000
vt 0.748047 0.500000
vt 0.748047 0.500000
vt 0.748047 0.500000
vt 0.748047 0.500000
vt 0.748047 0.500000
vt 0.748047 0.500000
vt 0.748047 0.500000
vt 0.748047 0.500000
vt 0.748047 0.500000
vt 0.748047 0.500000
vt 0.748047 0.500000
vt 0.748047 0.500000
vt 0.748047 0.500000
vt 0.748047 0.500000
vt 0.748047 0.500000
vt 0.748047 0.500000
vt 0.748047 0.500000
vt 0.748047 0.500000
vt 0.748047 0.500000
vt 0.748047 0.500000
vt 0.748047 0.500000
vt 0.748047 0.500000
vt 0.748047 0.500000
vt 0.748047 0.500000
vt 0.748047 0.500000
vt 0.748047 0.500000
vt 0.748047 0.500000
vt 0.748047 0.500000
vt 0.748047 0.500000
vt 0.748047 0.500000
vt 0.748047 0.500000
vt 0.748047 0.500000
vt 0.748047 0.500000
vt 0.748047 0.500000
vt 0.748047 0.500000
vt 0.748047 0.500000
vt 0.748047 0.500000
vt 0.748047 0.500000
vt 0.748047 0.500000
vt 0.748047 0.500000
vt 0.748047 0.500000
vt 0.748047 0.500000
vt 0.748047 0.500000
vt 0.748047 0.500000
vt 0.748047 0.500000
vt 0.748047 0.500000
vt 0.748047 0.500000
vt 0.748047 0.500000
vt 0.748047 0.500000
vt 0.748047 0.500000
vt 0.748047 0.500000
vt 0.748047 0.500000
vt 0.748047 0.500000
vt 0.748047 0.500000
vt 0.748047 0.500000
vt 0.748047 0.500000
vt 0.748047 0.500000
vt 0.748047 0.500000
vt 0.748047 0.500000
vt 0.748047 0.500000
vt 0.748047 0.500000
vt 0.748047 0.500000
vt 0.748047 0.500000
vt 0.748047 0.500000
vt 0.748047 0.500000
vt 0.748047 0.500000
vt 0.748047 0.500000
vt 0.748047 0.500000
vt 0.748047 0.500000
vt 0.748047 0.500000
vt 0.748047 0.500000
vt 0.748047 0.500000
vt 0.748047 0.500000
vt 0.748047 0.500000
vt 0.748047 0.500000
vt 0.748047 0.500000
vt 0.748047 0.500000
vt 0.748047 0.500000
vt 0.748047 0.500000
vt 0.748047 0.500000
vt 0.748047 0.500000
vt 0.748047 0.500000
vt 0.748047 0.500000
vt 0.748047 0.500000
vt 0.748047 0.500000
vt 0.748047 0.500000
vt 0.748047 0.500000
vt 0.748047 0.500000
vt 0.748047 0.500000
vt 0.748047 0.500000
vt 0.748047 0.500000
vt 0.748047 0.500000
vt 0.748047 0.500000
vt 0.748047 0.500000
vt 0.748047 0.500000
vt 0.748047 0.500000
vt 0.748047 0.500000
vt 0.748047 0.500000
vt 0.748047 0.500000
vt 0.748047 0.500000
vt 0.748047 0.500000
vt 0.748047 0.500000
vt 0.748047 0.500000
vt 0.748047 0.500000
vt 0.748047 0.500000
vt 0.748047 0.500000
vt 0.748047 0.500000
vt 0.748047 0.500000
vt 0.748047 0.500000
vt 0.748047 0.500000
vt 0.748047 0.500000
vt 0.748047 0.500000
vt 0.748047 0.500000
vt 0.748047 0.500000
vt 0.748047 0.500000
vt 0.748047 0.500000
vt 0.748047 0.500000
vt 0.748047 0.500000
vt 0.748047 0.500000
vt 0.748047 0.500000
vt 0.748047 0.500000
vt 0.748047 0.500000
vt 0.748047 0.500000
vt 0.748047 0.500000
vt 0.748047 0.500000
vt 0.748047 0.500000
vt 0.748047 0.500000
vt 0.748047 0.500000
vt 0.748047 0.500000
vt 0.748047 0.500000
vt 0.748047 0.500000
vt 0.748047 0.500000
vt 0.748047 0.500000
vt 0.748047 0.500000
vt 0.748047 0.500000
vt 0.748047 0.500000
vt 0.748047 0.500000
vt 0.748047 0.500000
vt 0.748047 0.500000
vt 0.748047 0.500000
vt 0.748047 0.500000
vt 0.748047 0.500000
vt 0.748047 0.500000
vt 0.748047 0.500000
vt 0.748047 0.500000
vt 0.748047 0.500000
vt 0.748047 0.500000
vt 0.748047 0.500000
vt 0.748047 0.500000
vt 0.748047 0.500000
vt 0.748047 0.500000
vt 0.748047 0.500000
vt 0.748047 0.500000
vt 0.748047 0.500000
vt 0.748047 0.500000
vt 0.748047 0.500000
vt 0.748047 0.500000
vt 0.748047 0.500000
vt 0.748047 0.500000
vt 0.748047 0.500000
vt 0.748047 0.500000
vt 0.748047 0.500000
vt 0.748047 0.500000
vt 0.748047 0.500000
vt 0.748047 0.500000
vt 0.748047 0.500000
vt 0.748047 0.500000
vt 0.748047 0.500000
vt 0.748047 0.500000
vt 0.748047 0.500000
vt 0.748047 0.500000
vt 0.748047 0.500000
vt 0.748047 0.500000
vt 0.748047 0.500000
vt 0.748047 0.500000
vt 0.748047 0.500000
vt 0.748047 0.500000
vt 0.748047 0.500000
vt 0.748047 0.500000
vt 0.748047 0.500000
vt 0.748047 0.500000
vt 0.748047 0.500000
vn -1.0000 0.0000 0.0000
vn 1.0000 0.0000 0.0000
vn 0.0000 -0.0000 1.0000
vn 0.0000 0.0000 -1.0000
vn 0.0000 -1.0000 -0.0000
vn 0.0000 1.0000 0.0000
usemtl palette.004
s 1
f 1/1/1 2/2/1 3/3/1
f 4/4/1 2/2/1 1/1/1
f 5/5/1 6/6/1 7/7/1
f 8/8/1 6/6/1 5/5/1
f 9/9/1 6/6/1 8/8/1
f 10/10/1 6/6/1 9/9/1
f 11/11/1 12/12/1 13/13/1
f 14/14/1 12/12/1 11/11/1
f 15/15/1 9/9/1 8/8/1
f 16/16/1 9/9/1 15/15/1
f 17/17/1 18/18/1 14/14/1
f 17/17/1 14/14/1 11/11/1
f 19/19/1 18/18/1 17/17/1
f 20/20/1 15/15/1 21/21/1
f 22/22/1 15/15/1 20/20/1
f 23/23/1 24/24/1 25/25/1
f 26/26/1 24/24/1 23/23/1
f 27/27/1 28/28/1 29/29/1
f 30/30/1 28/28/1 27/27/1
f 31/31/1 32/32/1 33/33/1
f 34/34/1 32/32/1 31/31/1
f 35/35/1 36/36/1 37/37/1
f 38/38/1 36/36/1 35/35/1
f 39/39/1 40/40/1 41/41/1
f 42/42/1 40/40/1 39/39/1
f 43/43/1 44/44/1 45/45/1
f 46/46/1 44/44/1 43/43/1
f 47/47/2 48/48/2 49/49/2
f 49/49/2 48/48/2 50/50/2
f 50/50/2 48/48/2 51/51/2
f 52/52/2 53/53/2 54/54/2
f 50/50/2 51/51/2 55/55/2
f 55/55/2 51/51/2 56/56/2
f 54/54/2 57/57/2 58/58/2
f 52/52/2 54/54/2 58/58/2
f 58/58/2 57/57/2 59/59/2
f 60/60/2 55/55/2 61/61/2
f 61/61/2 55/55/2 62/62/2
f 63/63/2 64/64/2 65/65/2
f 65/65/2 64/64/2 66/66/2
f 67/67/2 68/68/2 69/69/2
f 69/69/2 68/68/2 70/70/2
f 67/67/2 69/69/2 71/71/2
f 71/71/2 69/69/2 72/72/2
f 73/73/2 74/74/2 75/75/2
f 75/75/2 74/74/2 76/76/2
f 77/77/2 78/78/2 79/79/2
f 79/79/2 78/78/2 80/80/2
f 81/81/2 82/82/2 83/83/2
f 83/83/2 82/82/2 84/84/2
f 85/85/2 86/86/2 87/87/2
f 87/87/2 86/86/2 88/88/2
f 89/89/3 90/90/3 91/91/3
f 92/92/3 90/90/3 89/89/3
f 93/93/3 94/94/3 95/95/3
f 96/96/3 94/94/3 93/93/3
f 97/97/3 98/98/3 99/99/3
f 100/100/3 98/98/3 97/97/3
f 101/101/3 102/102/3 103/103/3
f 104/104/3 102/102/3 101/101/3
f 105/105/3 106/106/3 107/107/3
f 108/108/3 106/106/3 105/105/3
f 109/109/3 110/110/3 111/111/3
f 112/112/3 110/110/3 109/109/3
f 113/113/3 114/114/3 115/115/3
f 116/116/3 114/114/3 113/113/3
f 117/117/3 118/118/3 119/119/3
f 120/120/3 118/118/3 117/117/3
f 121/121/3 122/122/3 123/123/3
f 124/124/3 122/122/3 121/121/3
f 125/125/3 126/126/3 127/127/3
f 128/128/3 126/126/3 125/125/3
f 129/129/3 130/130/3 131/131/3
f 132/132/3 130/130/3 129/129/3
f 133/133/4 134/134/4 135/135/4
f 135/135/4 134/134/4 136/136/4
f 137/137/4 138/138/4 139/139/4
f 139/139/4 138/138/4 140/140/4
f 141/141/4 142/142/4 143/143/4
f 143/143/4 142/142/4 144/144/4
f 145/145/4 146/146/4 147/147/4
f 147/147/4 146/146/4 148/148/4
f 148/148/4 146/146/4 149/149/4
f 150/150/4 151/151/4 152/152/4
f 152/152/4 151/151/4 153/153/4
f 154/154/4 155/155/4 156/156/4
f 156/156/4 155/155/4 157/157/4
f 158/158/4 159/159/4 160/160/4
f 160/160/4 159/159/4 161/161/4
f 162/162/4 163/163/4 164/164/4
f 164/164/4 163/163/4 165/165/4
f 162/162/4 164/164/4 166/166/4
f 166/166/4 164/164/4 167/167/4
f 168/168/4 169/169/4 170/170/4
f 170/170/4 169/169/4 171/171/4
f 172/172/4 173/173/4 174/174/4
f 174/174/4 173/173/4 175/175/4
f 176/176/4 177/177/4 178/178/4
f 178/178/4 177/177/4 179/179/4
f 180/180/5 181/181/5 182/182/5
f 183/183/5 181/181/5 180/180/5
f 184/184/5 185/185/5 186/186/5
f 187/187/5 185/185/5 184/184/5
f 188/188/5 180/180/5 189/189/5
f 190/190/5 188/188/5 189/189/5
f 190/190/5 191/191/5 188/188/5
f 192/192/5 193/193/5 194/194/5
f 195/195/5 193/193/5 192/192/5
f 196/196/5 190/190/5 197/197/5
f 198/198/5 191/191/5 190/190/5
f 198/198/5 190/190/5 196/196/5
f 199/199/5 191/191/5 198/198/5
f 200/200/5 191/191/5 199/199/5
f 201/201/5 202/202/5 203/203/5
f 204/204/5 202/202/5 201/201/5
f 205/205/5 206/206/5 200/200/5
f 207/207/5 206/206/5 205/205/5
f 208/208/5 209/209/5 210/210/5
f 211/211/5 209/209/5 208/208/5
f 212/212/5 213/213/5 214/214/5
f 215/215/5 213/213/5 212/212/5
f 216/216/6 217/217/6 218/218/6
f 218/218/6 217/217/6 219/219/6
f 220/220/6 218/218/6 221/221/6
f 221/221/6 218/218/6 222/222/6
f 223/223/6 224/224/6 225/225/6
f 225/225/6 224/224/6 226/226/6
f 227/227/6 228/228/6 229/229/6
f 229/229/6 228/228/6 230/230/6
f 231/231/6 232/232/6 233/233/6
f 233/233/6 232/232/6 234/234/6
f 230/230/6 235/235/6 236/236/6
f 237/237/6 229/229/6 236/236/6
f 229/229/6 230/230/6 236/236/6
f 236/236/6 235/235/6 238/238/6
f 238/238/6 235/235/6 239/239/6
f 239/239/6 235/235/6 240/240/6
f 240/240/6 235/235/6 241/241/6
f 241/241/6 242/242/6 243/243/6
f 243/243/6 242/242/6 244/244/6
f 245/245/6 246/246/6 247/247/6
f 247/247/6 246/246/6 248/248/6
f 249/249/6 250/250/6 251/251/6
f 251/251/6 250/250/6 252/252/6
f 253/253/6 254/254/6 255/255/6
f 255/255/6 254/254/6 256/256/6
f 257/257/6 258/258/6 259/259/6
f 259/259/6 258/258/6 260/260/6
f 261/261/6 262/262/6 263/263/6
f 263/263/6 262/262/6 264/264/6
